<svg xmlns="http://www.w3.org/2000/svg" xmlns:osb="http://www.openswatchbook.org/uri/2009/osb" height="275" width="500" version="1.1" xmlns:xlink="http://www.w3.org/1999/xlink" viewBox="-0.2 -236 500.18595 275.00001"><defs><linearGradient id="card_color-3" osb:paint="solid"><stop stop-color="#d6001a" offset="0"/></linearGradient><linearGradient id="accent-color-6" osb:paint="solid"><stop stop-color="#fff5b3" offset="0"/></linearGradient><g id="base"><path d="m0 0c0 3.78 3.09 6.87 6.87 6.87h152.85c3.76 0 6.86-3.09 6.86-6.87v-228.4c0-3.78-3.1-6.87-6.86-6.87h-152.85c-3.78 0-6.87 3.09-6.87 6.87z" stroke="#000" stroke-width="2.5" fill="#fff"/></g><g y="0" x="0"></g><g id="joker" transform="translate(-1094.1,-924.2)"></g><linearGradient id="linearGradient11707" y2="1817.8" xlink:href="#accent-color-6" gradientUnits="userSpaceOnUse" x2="1850.8" gradientTransform="translate(-20.036 -25.795)" y1="1817.8" x1="1737.3"/><linearGradient id="linearGradient11709" y2="-1818" xlink:href="#card_color-3" gradientUnits="userSpaceOnUse" x2="-1741.6" gradientTransform="translate(20.024 25.804)" y1="-1818" x1="-1844.2"/><linearGradient id="linearGradient11711" y2="1768.3" xlink:href="#accent-color-6" gradientUnits="userSpaceOnUse" x2="1846.2" gradientTransform="translate(-20.024 -25.804)" y1="1768.3" x1="1780.3"/><linearGradient id="linearGradient11713" y2="1997.6" xlink:href="#accent-color-6" gradientUnits="userSpaceOnUse" x2="1583.1" gradientTransform="translate(-17.125 -27.812)" y1="1997.6" x1="1469.5"/><linearGradient id="linearGradient11715" y2="-1998.3" xlink:href="#card_color-3" gradientUnits="userSpaceOnUse" x2="-1473.9" gradientTransform="translate(17.112 27.82)" y1="-1998.3" x1="-1576.4"/><linearGradient id="linearGradient11717" y2="1945.2" xlink:href="#accent-color-6" gradientUnits="userSpaceOnUse" x2="1578.3" gradientTransform="translate(-17.112 -27.82)" y1="1945.2" x1="1497.5"/><linearGradient id="linearGradient11719" y2="2319.9" xlink:href="#accent-color-6" gradientUnits="userSpaceOnUse" x2="832.3" gradientTransform="translate(-8.7305 -31.473)" y1="2319.9" x1="718.73"/><linearGradient id="linearGradient11721" y2="-2320.3" xlink:href="#card_color-3" gradientUnits="userSpaceOnUse" x2="-722.96" gradientTransform="translate(8.7156 31.477)" y1="-2320.3" x1="-825.52"/><linearGradient id="linearGradient11723" y2="2269.9" xlink:href="#accent-color-6" gradientUnits="userSpaceOnUse" x2="799.18" gradientTransform="translate(-8.7156 -31.477)" y1="2269.9" x1="720.53"/><linearGradient id="linearGradient11725" y2="-2134.3" xlink:href="#card_color-3" gradientUnits="userSpaceOnUse" x2="-1196.7" gradientTransform="translate(14.274 29.378)" y1="-2134.3" x1="-1299.3"/></defs><flowRoot style="word-spacing:0px;letter-spacing:0px" xml:space="preserve" font-size="16px" transform="translate(0 -941.54)" line-height="1.25" font-family="&apos;Just Another Hand&apos;" fill="#000000"><flowRegion><rect y="2370.4" width="210.86" x="1471.4" height="176.94"/></flowRegion><flowPara/></flowRoot><g transform="matrix(1.4743 0 0 1.4743 -1693.8 -3168)"><use xlink:href="#base" transform="matrix(-.66936 -.053410 .053410 -.66936 1592.3 2673.1)" height="100%" width="100%" y="972.54999" x="335.14999"/><g><path d="m-1568.1-2038.5h98.3c1.2 0 2.2 1.1 2.2 2.4v149.2c0 1.3-1 2.4-2.2 2.4h-98.3c-1.1 0-2.1-1.1-2.1-2.4v-149.2c0-1.3 1-2.4 2.1-2.4z" fill-rule="evenodd" transform="rotate(184.56)" fill="#dd0006"/><g aria-label="with" transform="rotate(4.5621)" stroke-width="2.8865" fill="#fff"><path d="m1498.1 1929.2-4.1-33.8h6.9l2.3 18.2 1.9-18.2h7.1l2.3 18.2 1.9-18.2h7.6l-4.3 33.8h-8.1l-2.4-19.2-2.1 19.2z"/><path d="m1526.6 1893.2v-5.7h8.1v5.7zm0 36v-33.8h8.1v33.8z"/><path d="m1544.8 1929.6q-3.2 0-4.4-1.3-1.2-1.4-1.2-4.3v-21.1h-2.2v-6.2h2.2v-7.1h7.9v7.1h2.3v6.2h-2.3v18.9q0 0.9 0.1 1.3 0.2 0.5 0.8 0.5 0.4 0 0.8-0.1 0.5 0 0.6 0v5.5q-0.7 0.2-2 0.4t-2.6 0.2z"/><path d="m1551.9 1889.3h8.3v9.5q1.3-3.7 5-3.7 3.4 0 5.2 2.1 1.7 2.2 1.7 6v26h-8.1v-25.5q0-1.1-0.5-1.8t-1.5-0.7q-0.8 0-1.3 0.7t-0.5 1.7v25.6h-8.3z"/></g><path style="paint-order:normal" d="m1722.6 1710.8h102.9c2.4 0 4.4 2 4.4 4.4v153.6c0 2.5-2 4.5-4.4 4.5h-102.9c-2.5 0-4.5-2-4.5-4.5v-153.6c0-2.4 2-4.4 4.5-4.4z" transform="rotate(10.488)" stroke="#000" stroke-width="1.7006" fill="url(#linearGradient11707)"/><path d="m-1822-1869.1h98.3c1.2 0 2.1 1 2.1 2.3v149.2c0 1.3-0.9 2.4-2.1 2.4h-98.3c-1.2 0-2.1-1.1-2.1-2.4v-149.2c0-1.3 0.9-2.3 2.1-2.3z" fill-rule="evenodd" transform="rotate(190.46)" fill="url(#linearGradient11709)"/><g aria-label=".me" transform="rotate(10.461)" stroke-width="2.9002" fill="url(#linearGradient11711)"><path d="m1760.3 1759.5v-6.8h8.1v6.8z"/><path d="m1771.3 1725.5h7.9v4q0.6-2.2 1.9-3.3 1.4-1 3.8-1 2 0 3.5 0.9 1.4 0.9 2 2.4 1.1-1.7 2.3-2.5 1.3-0.8 3.5-0.8 4 0 5.5 2.4 1.6 2.4 1.6 7.1l-0.1 24.8h-8.2v-25q0-3.3-1.6-3.3-1.2 0-1.7 1.2-0.5 1.1-0.5 2.7v24.4h-8.1v-25q0-1.4-0.4-2.3-0.2-0.9-1.2-0.9-1.3 0-1.8 1.3-0.5 1.2-0.5 2.9v24h-7.9z"/><path d="m1816 1759.9q-5.3 0-7.6-2.9-2.2-2.9-2.2-8.6v-13.6q0-4.7 2.7-7.2 2.7-2.4 7.5-2.4 9.8 0 9.8 9.6v2.4q0 3.7-0.1 6.1h-11.8v6.5q0 1.8 0.4 2.8 0.3 1 1.5 1 1 0 1.3-0.6 0.5-0.5 0.5-1.2 0.1-0.8 0.1-2.1v-3.3h8.1v1.9q0 6-2.3 8.8t-7.9 2.8zm2.1-20.7v-4.3q0-3.7-1.8-3.7-2.1 0-2.1 3.7v4.3z"/></g><path style="paint-order:normal" d="m1457.7 1888.5h102.9c2.5 0 4.5 2 4.5 4.5v153.6c0 2.5-2 4.5-4.5 4.5h-102.9c-2.5 0-4.5-2-4.5-4.5v-153.6c0-2.5 2-4.5 4.5-4.5z" transform="rotate(4.2729)" stroke="#000" stroke-width="1.7006" fill="url(#linearGradient11713)"/><path d="m-1557.2-2047.5h98.3c1.2 0 2.1 1.1 2.1 2.4v149.2c0 1.3-0.9 2.3-2.1 2.3h-98.3c-1.2 0-2.1-1-2.1-2.3v-149.2c0-1.3 0.9-2.4 2.1-2.4z" fill-rule="evenodd" transform="rotate(184.25)" fill="url(#linearGradient11715)"/><g aria-label="with" transform="rotate(4.2457)" stroke-width="2.9874" fill="url(#linearGradient11717)"><path d="m1484.6 1938.8-4.2-35h7.2l2.3 18.8 2-18.8h7.3l2.4 18.8 2-18.8h7.9l-4.5 35h-8.4l-2.5-19.9-2.2 19.9z"/><path d="m1514.1 1901.5v-5.9h8.4v5.9zm0 37.3v-35h8.4v35z"/><path d="m1533 1939.2q-3.3 0-4.6-1.4-1.2-1.4-1.2-4.4v-21.9h-2.3v-6.3h2.3v-7.4h8.1v7.4h2.4v6.3h-2.4v19.7q0 0.9 0.2 1.3 0.1 0.4 0.7 0.4 0.5 0 0.9 0 0.5-0.1 0.6-0.1v5.8q-0.7 0.2-2.1 0.4-1.3 0.2-2.6 0.2z"/><path d="m1540.3 1897.5h8.6v9.8q1.4-3.9 5.2-3.9 3.5 0 5.3 2.3 1.8 2.2 1.8 6.2v26.9h-8.3v-26.4q0-1.2-0.6-1.9-0.5-0.7-1.5-0.7-0.9 0-1.4 0.8-0.5 0.7-0.5 1.7v26.5h-8.6z"/></g><path style="paint-order:normal" d="m715.34 2207.2h102.89c2.49 0 4.49 2 4.49 4.5v153.6c0 2.4-2 4.4-4.49 4.4h-102.89c-2.49 0-4.49-2-4.49-4.4v-153.6c0-2.5 2-4.5 4.49-4.5z" transform="rotate(-11.846)" stroke="#000" stroke-width="1.7006" fill="url(#linearGradient11719)"/><path d="m-814.68-2365.8h98.31c1.18 0 2.13 1.1 2.13 2.4v149.2c0 1.3-0.95 2.4-2.13 2.4h-98.31c-1.18 0-2.13-1.1-2.13-2.4v-149.2c0-1.3 0.95-2.4 2.13-2.4z" fill-rule="evenodd" transform="rotate(168.13)" fill="url(#linearGradient11721)"/><g aria-label="play" transform="rotate(-11.873)" stroke-width="2.9874" fill="url(#linearGradient11723)"><path d="m711.81 2220.6h8.51v1.8q1.82-2.2 5.02-2.2 4.06 0 5.64 2.7 1.63 2.7 1.63 7.6v12.9q0 4.1-0.48 6.7t-2.1 4.3q-1.63 1.5-4.93 1.5-3.15 0-4.78-1.7v8.3h-8.51zm10.52 28.8q1.15 0 1.48-1 0.34-1.1 0.34-3.1v-14.8q0-1.9-0.34-2.8-0.33-1-1.53-1-1.96 0-1.96 3.7v15.3q0 1.8 0.39 2.8 0.43 0.9 1.62 0.9z"/><path d="m735.71 2255.5v-41.2h8.51v41.2z"/><path d="m753.93 2255.9q-4.07 0-5.59-2.6-1.49-2.8-1.49-7.8 0-4.1 1.06-6.3 1.09-2.2 3.01-3.2 1.91-1.1 5.83-2.3l2.29-0.8v-3.5q0-1.4-0.57-2.1-0.53-0.8-1.29-0.8-0.67 0-1.2 0.6-0.47 0.6-0.47 1.7v2.1h-8.13v-1.2q0-5.1 2.39-7.3 2.44-2.2 7.89-2.2 4.35 0 7.07 2.3 2.72 2.2 2.72 6.4v26.6h-8.31v-4.1q-0.62 2.1-2.01 3.3-1.34 1.2-3.2 1.2zm3.3-6.5q0.95 0 1.33-0.7 0.43-0.8 0.43-2v-9.7q-1.86 0.7-2.77 1.8-0.86 1.1-0.86 3v4.5q0 3.1 1.87 3.1z"/><path d="m769.96 2256.1h4.02q0.86 0 0.86-0.7 0-0.4-0.05-0.6l-5.45-34.2h7.98l1.58 17 0.76 8.7 0.91-8.7 1.87-17h8.03l-6.5 36.8q-0.34 2-1.39 3-1 1-3.2 1h-9.42z"/></g><path style="paint-order:normal" d="m1183.4 2023h102.9c2.5 0 4.5 2 4.5 4.5v153.6c0 2.5-2 4.5-4.5 4.5h-102.9c-2.5 0-4.5-2-4.5-4.5v-153.6c0-2.5 2-4.5 4.5-4.5z" transform="rotate(-1.408)" stroke="#000" stroke-width="1.7006" fill="#fff"/><path d="m-1282.9-2181.9h98.3c1.2 0 2.2 1.1 2.2 2.4v149.2c0 1.3-1 2.4-2.2 2.4h-98.3c-1.1 0-2.1-1.1-2.1-2.4v-149.2c0-1.3 1-2.4 2.1-2.4z" fill-rule="evenodd" transform="rotate(178.56)" fill="url(#linearGradient11725)"/><g aria-label="cards" transform="rotate(-1.4352)" stroke-width="2.9874" fill="#fff"><path d="m1190.5 2072q-5.7 0-8.3-2.9-2.5-2.9-2.5-8.9v-10.8q0-4.6 1-7.4 1-2.9 3.3-4.3t6.4-1.4q4.5 0 7.3 2.3 2.8 2.4 2.8 6.6v5.3h-8.5v-4.9q0-1.4-0.3-2.1-0.4-0.8-1.5-0.8-2.1 0-2.1 2.9v17q0 1.2 0.5 2.1 0.5 0.8 1.5 0.8t1.5-0.8 0.5-2.1l-0.1-5.9h8.5v6.1q0 4.3-2.8 6.8-2.7 2.4-7.2 2.4z"/><path d="m1209.8 2072q-4.1 0-5.6-2.6-1.5-2.8-1.5-7.8 0-4.1 1.1-6.3t3-3.2q1.9-1.1 5.8-2.3l2.3-0.8v-3.5q0-1.4-0.6-2.1-0.5-0.8-1.3-0.8-0.6 0-1.2 0.6-0.4 0.6-0.4 1.7v2.1h-8.2v-1.2q0-5.1 2.4-7.3 2.5-2.2 7.9-2.2 4.4 0 7.1 2.3 2.7 2.2 2.7 6.4v26.6h-8.3v-4.1q-0.6 2.1-2 3.3t-3.2 1.2zm3.3-6.5q0.9 0 1.3-0.7 0.5-0.8 0.5-2v-9.7q-1.9 0.7-2.8 1.8t-0.9 3v4.5q0 3.1 1.9 3.1z"/><path d="m1226.5 2036.7h8.4v3.8q0.6-2 2.1-3.1 1.6-1.2 3.9-1.2v7q-1.8 0-3.9 0.5t-2.1 1.2v26.7h-8.4z"/><path d="m1249.8 2072q-3.1 0-4.6-1.4-1.6-1.5-2.1-3.9t-0.5-6.2l0.1-15.8q0-3.7 1.9-6 1.9-2.4 5.3-2.4t5.1 2.2v-8.2h8.4v41.3h-8.4v-3.7q-0.7 2.1-1.9 3.1t-3.3 1zm3.2-6.5q1.2 0 1.6-1.2 0.4-1.3 0.4-3.3v-14.6q0-1.6-0.4-2.6-0.4-1.1-1.5-1.1-1.3 0-1.7 1t-0.4 2.7v14.7q0 4.4 2 4.4z"/><path d="m1276.3 2072q-10.3 0-10.3-10.5v-2.8h8.4v4.2q0 1.2 0.5 1.9 0.5 0.6 1.6 0.6 1.6 0 1.6-2.7 0-2-0.8-3.2-0.7-1.1-2.5-2.4l-4.4-3.5q-2.3-1.7-3.3-3.6t-1-5.4q0-2.6 1.4-4.5t3.8-2.9q2.3-0.9 5.2-0.9 10.2 0 10.2 10.1v0.7h-8.7v-1.4q0-1.2-0.4-2.1t-1.4-0.9q-0.8 0-1.3 0.6-0.4 0.4-0.4 1.3 0 1.9 1.4 3l5.2 3.7q2.8 2.1 4.3 4.5 1.4 2.4 1.4 6.1 0 4.9-2.7 7.5-2.8 2.6-7.8 2.6z"/></g></g></g></svg>
