<?xml version="1.0" encoding="UTF-8" standalone="no"?>
<svg
   xmlns:osb="http://www.openswatchbook.org/uri/2009/osb"
   xmlns:dc="http://purl.org/dc/elements/1.1/"
   xmlns:cc="http://creativecommons.org/ns#"
   xmlns:rdf="http://www.w3.org/1999/02/22-rdf-syntax-ns#"
   xmlns:svg="http://www.w3.org/2000/svg"
   xmlns="http://www.w3.org/2000/svg"
   xmlns:xlink="http://www.w3.org/1999/xlink"
   xmlns:sodipodi="http://sodipodi.sourceforge.net/DTD/sodipodi-0.dtd"
   xmlns:inkscape="http://www.inkscape.org/namespaces/inkscape"
   height="110"
   width="500"
   version="1.1"
   viewBox="-0.2 -236 500.18595 110"
   id="svg5679"
   sodipodi:docname="logo-2-header.svg"
   inkscape:version="0.92.1 r15371">
  <metadata
     id="metadata5683">
    <rdf:RDF>
      <cc:Work
         rdf:about="">
        <dc:format>image/svg+xml</dc:format>
        <dc:type
           rdf:resource="http://purl.org/dc/dcmitype/StillImage" />
        <dc:title></dc:title>
      </cc:Work>
    </rdf:RDF>
  </metadata>
  <sodipodi:namedview
     pagecolor="#ffffff"
     bordercolor="#666666"
     borderopacity="1"
     objecttolerance="10"
     gridtolerance="10"
     guidetolerance="10"
     inkscape:pageopacity="0"
     inkscape:pageshadow="2"
     inkscape:window-width="956"
     inkscape:window-height="1041"
     id="namedview5681"
     showgrid="false"
     inkscape:zoom="0.674"
     inkscape:cx="314.94802"
     inkscape:cy="137.38321"
     inkscape:window-x="960"
     inkscape:window-y="18"
     inkscape:window-maximized="0"
     inkscape:current-layer="svg5679" />
  <defs
     id="defs5595">
    <linearGradient
       id="card_color-3"
       osb:paint="solid">
      <stop
         stop-color="#d6001a"
         offset="0"
         id="stop5573" />
    </linearGradient>
    <linearGradient
       id="accent-color-6"
       osb:paint="solid">
      <stop
         stop-color="#fff5b3"
         offset="0"
         id="stop5576" />
    </linearGradient>
    <g
       id="base">
      <path
         d="m 0,0 c 0,3.78 3.09,6.87 6.87,6.87 h 152.85 c 3.76,0 6.86,-3.09 6.86,-6.87 v -228.4 c 0,-3.78 -3.1,-6.87 -6.86,-6.87 H 6.87 c -3.78,0 -6.87,3.09 -6.87,6.87 z"
         id="path5579"
         inkscape:connector-curvature="0"
         style="fill:#ffffff;stroke:#000000;stroke-width:2.5" />
    </g>
    <g
       y="0"
       x="0"
       id="g5582" />
    <g
       id="joker"
       transform="translate(-1094.1,-924.2)" />
    <linearGradient
       id="linearGradient11707"
       y2="1817.8"
       xlink:href="#accent-color-6"
       gradientUnits="userSpaceOnUse"
       x2="1850.8"
       gradientTransform="translate(-20.036,-25.795)"
       y1="1817.8"
       x1="1737.3" />
    <linearGradient
       id="linearGradient11709"
       y2="-1818"
       xlink:href="#card_color-3"
       gradientUnits="userSpaceOnUse"
       x2="-1741.6"
       gradientTransform="translate(20.024,25.804)"
       y1="-1818"
       x1="-1844.2" />
    <linearGradient
       id="linearGradient11711"
       y2="1768.3"
       xlink:href="#accent-color-6"
       gradientUnits="userSpaceOnUse"
       x2="1846.2"
       gradientTransform="translate(-20.024,-25.804)"
       y1="1768.3"
       x1="1780.3" />
    <linearGradient
       id="linearGradient11713"
       y2="1997.6"
       xlink:href="#accent-color-6"
       gradientUnits="userSpaceOnUse"
       x2="1583.1"
       gradientTransform="translate(-17.125,-27.812)"
       y1="1997.6"
       x1="1469.5" />
    <linearGradient
       id="linearGradient11715"
       y2="-1998.3"
       xlink:href="#card_color-3"
       gradientUnits="userSpaceOnUse"
       x2="-1473.9"
       gradientTransform="translate(17.112,27.82)"
       y1="-1998.3"
       x1="-1576.4" />
    <linearGradient
       id="linearGradient11717"
       y2="1945.2"
       xlink:href="#accent-color-6"
       gradientUnits="userSpaceOnUse"
       x2="1578.3"
       gradientTransform="translate(-17.112,-27.82)"
       y1="1945.2"
       x1="1497.5" />
    <linearGradient
       id="linearGradient11719"
       y2="2319.8999"
       xlink:href="#accent-color-6"
       gradientUnits="userSpaceOnUse"
       x2="832.29999"
       gradientTransform="translate(-8.7305,-31.473)"
       y1="2319.8999"
       x1="718.72998" />
    <linearGradient
       id="linearGradient11721"
       y2="-2320.3"
       xlink:href="#card_color-3"
       gradientUnits="userSpaceOnUse"
       x2="-722.96002"
       gradientTransform="translate(8.7156,31.477)"
       y1="-2320.3"
       x1="-825.52002" />
    <linearGradient
       id="linearGradient11723"
       y2="2269.8999"
       xlink:href="#accent-color-6"
       gradientUnits="userSpaceOnUse"
       x2="799.17999"
       gradientTransform="translate(-8.7156,-31.477)"
       y1="2269.8999"
       x1="720.53003" />
    <linearGradient
       id="linearGradient11725"
       y2="-2134.3"
       xlink:href="#card_color-3"
       gradientUnits="userSpaceOnUse"
       x2="-1196.7"
       gradientTransform="translate(14.274,29.378)"
       y1="-2134.3"
       x1="-1299.3" />
    <linearGradient
       inkscape:collect="always"
       xlink:href="#accent-color-6"
       id="linearGradient6228"
       gradientUnits="userSpaceOnUse"
       gradientTransform="translate(-20.024,-25.804)"
       x1="1780.3"
       y1="1768.3"
       x2="1846.2"
       y2="1768.3" />
    <linearGradient
       inkscape:collect="always"
       xlink:href="#accent-color-6"
       id="linearGradient6230"
       gradientUnits="userSpaceOnUse"
       gradientTransform="translate(-20.024,-25.804)"
       x1="1780.3"
       y1="1768.3"
       x2="1846.2"
       y2="1768.3" />
    <linearGradient
       inkscape:collect="always"
       xlink:href="#accent-color-6"
       id="linearGradient6232"
       gradientUnits="userSpaceOnUse"
       gradientTransform="translate(-20.024,-25.804)"
       x1="1780.3"
       y1="1768.3"
       x2="1846.2"
       y2="1768.3" />
    <linearGradient
       inkscape:collect="always"
       xlink:href="#accent-color-6"
       id="linearGradient6234"
       gradientUnits="userSpaceOnUse"
       gradientTransform="translate(-17.112,-27.82)"
       x1="1497.5"
       y1="1945.2"
       x2="1578.3"
       y2="1945.2" />
    <linearGradient
       inkscape:collect="always"
       xlink:href="#accent-color-6"
       id="linearGradient6236"
       gradientUnits="userSpaceOnUse"
       gradientTransform="translate(-17.112,-27.82)"
       x1="1497.5"
       y1="1945.2"
       x2="1578.3"
       y2="1945.2" />
    <linearGradient
       inkscape:collect="always"
       xlink:href="#accent-color-6"
       id="linearGradient6238"
       gradientUnits="userSpaceOnUse"
       gradientTransform="translate(-17.112,-27.82)"
       x1="1497.5"
       y1="1945.2"
       x2="1578.3"
       y2="1945.2" />
    <linearGradient
       inkscape:collect="always"
       xlink:href="#accent-color-6"
       id="linearGradient6240"
       gradientUnits="userSpaceOnUse"
       gradientTransform="translate(-17.112,-27.82)"
       x1="1497.5"
       y1="1945.2"
       x2="1578.3"
       y2="1945.2" />
    <linearGradient
       inkscape:collect="always"
       xlink:href="#accent-color-6"
       id="linearGradient6242"
       gradientUnits="userSpaceOnUse"
       gradientTransform="translate(-8.7156,-31.477)"
       x1="720.53003"
       y1="2269.8999"
       x2="799.17999"
       y2="2269.8999" />
    <linearGradient
       inkscape:collect="always"
       xlink:href="#accent-color-6"
       id="linearGradient6244"
       gradientUnits="userSpaceOnUse"
       gradientTransform="translate(-8.7156,-31.477)"
       x1="720.53003"
       y1="2269.8999"
       x2="799.17999"
       y2="2269.8999" />
    <linearGradient
       inkscape:collect="always"
       xlink:href="#accent-color-6"
       id="linearGradient6246"
       gradientUnits="userSpaceOnUse"
       gradientTransform="translate(-8.7156,-31.477)"
       x1="720.53003"
       y1="2269.8999"
       x2="799.17999"
       y2="2269.8999" />
    <linearGradient
       inkscape:collect="always"
       xlink:href="#accent-color-6"
       id="linearGradient6248"
       gradientUnits="userSpaceOnUse"
       gradientTransform="translate(-8.7156,-31.477)"
       x1="720.53003"
       y1="2269.8999"
       x2="799.17999"
       y2="2269.8999" />
  </defs>
  <flowRoot
     style="font-size:16px;line-height:1.25;font-family:'Just Another Hand';letter-spacing:0px;word-spacing:0px;fill:#000000"
     xml:space="preserve"
     font-size="16px"
     transform="translate(0,-1106.6013)"
     line-height="1.25"
     id="flowRoot5603"><flowRegion
       id="flowRegion5599"><rect
         y="2370.3999"
         width="210.86"
         x="1471.4"
         height="176.94"
         id="rect5597" /></flowRegion><flowPara
       id="flowPara5601" /></flowRoot>  <g
     transform="matrix(1.4743,0,0,1.4743,-1693.8,-3169.8455)"
     id="g5677">
    <use
       xlink:href="#base"
       transform="matrix(-0.66936,-0.05341,0.05341,-0.66936,1592.3,2673.1)"
       height="100%"
       width="100%"
       y="972.54999"
       x="335.14999"
       id="use5605" />
    <g
       id="g5675">
      <path
         d="m -1568.1,-2038.5 h 98.3 c 1.2,0 2.2,1.1 2.2,2.4 v 149.2 c 0,1.3 -1,2.4 -2.2,2.4 h -98.3 c -1.1,0 -2.1,-1.1 -2.1,-2.4 v -149.2 c 0,-1.3 1,-2.4 2.1,-2.4 z"
         transform="rotate(-175.44)"
         id="path5607"
         inkscape:connector-curvature="0"
         style="fill:#dd0006;fill-rule:evenodd" />
      <g
         aria-label="with"
         transform="rotate(4.5621)"
         id="g5617"
         style="fill:#ffffff;stroke-width:2.88649988">
        <path
           d="m 1498.1,1929.2 -4.1,-33.8 h 6.9 l 2.3,18.2 1.9,-18.2 h 7.1 l 2.3,18.2 1.9,-18.2 h 7.6 l -4.3,33.8 h -8.1 l -2.4,-19.2 -2.1,19.2 z"
           id="path5609"
           inkscape:connector-curvature="0" />
        <path
           d="m 1526.6,1893.2 v -5.7 h 8.1 v 5.7 z m 0,36 v -33.8 h 8.1 v 33.8 z"
           id="path5611"
           inkscape:connector-curvature="0" />
        <path
           d="m 1544.8,1929.6 q -3.2,0 -4.4,-1.3 -1.2,-1.4 -1.2,-4.3 v -21.1 h -2.2 v -6.2 h 2.2 v -7.1 h 7.9 v 7.1 h 2.3 v 6.2 h -2.3 v 18.9 q 0,0.9 0.1,1.3 0.2,0.5 0.8,0.5 0.4,0 0.8,-0.1 0.5,0 0.6,0 v 5.5 q -0.7,0.2 -2,0.4 -1.3,0.2 -2.6,0.2 z"
           id="path5613"
           inkscape:connector-curvature="0" />
        <path
           d="m 1551.9,1889.3 h 8.3 v 9.5 q 1.3,-3.7 5,-3.7 3.4,0 5.2,2.1 1.7,2.2 1.7,6 v 26 h -8.1 v -25.5 q 0,-1.1 -0.5,-1.8 -0.5,-0.7 -1.5,-0.7 -0.8,0 -1.3,0.7 -0.5,0.7 -0.5,1.7 v 25.6 h -8.3 z"
           id="path5615"
           inkscape:connector-curvature="0" />
      </g>
      <path
         style="fill:url(#linearGradient11707);stroke:#000000;stroke-width:1.70060003;paint-order:normal"
         d="m 1722.6,1710.8 h 102.9 c 2.4,0 4.4,2 4.4,4.4 v 153.6 c 0,2.5 -2,4.5 -4.4,4.5 h -102.9 c -2.5,0 -4.5,-2 -4.5,-4.5 v -153.6 c 0,-2.4 2,-4.4 4.5,-4.4 z"
         transform="rotate(10.488)"
         id="path5619"
         inkscape:connector-curvature="0" />
      <path
         d="m -1822,-1869.1 h 98.3 c 1.2,0 2.1,1 2.1,2.3 v 149.2 c 0,1.3 -0.9,2.4 -2.1,2.4 h -98.3 c -1.2,0 -2.1,-1.1 -2.1,-2.4 v -149.2 c 0,-1.3 0.9,-2.3 2.1,-2.3 z"
         transform="rotate(-169.54)"
         id="path5621"
         inkscape:connector-curvature="0"
         style="fill:url(#linearGradient11709);fill-rule:evenodd" />
      <g
         aria-label=".me"
         transform="rotate(10.461)"
         id="g5629"
         style="fill:url(#linearGradient11711);stroke-width:2.90019989">
        <path
           d="m 1760.3,1759.5 v -6.8 h 8.1 v 6.8 z"
           id="path5623"
           inkscape:connector-curvature="0"
           style="fill:url(#linearGradient6228)" />
        <path
           d="m 1771.3,1725.5 h 7.9 v 4 q 0.6,-2.2 1.9,-3.3 1.4,-1 3.8,-1 2,0 3.5,0.9 1.4,0.9 2,2.4 1.1,-1.7 2.3,-2.5 1.3,-0.8 3.5,-0.8 4,0 5.5,2.4 1.6,2.4 1.6,7.1 l -0.1,24.8 h -8.2 v -25 q 0,-3.3 -1.6,-3.3 -1.2,0 -1.7,1.2 -0.5,1.1 -0.5,2.7 v 24.4 h -8.1 v -25 q 0,-1.4 -0.4,-2.3 -0.2,-0.9 -1.2,-0.9 -1.3,0 -1.8,1.3 -0.5,1.2 -0.5,2.9 v 24 h -7.9 z"
           id="path5625"
           inkscape:connector-curvature="0"
           style="fill:url(#linearGradient6230)" />
        <path
           d="m 1816,1759.9 q -5.3,0 -7.6,-2.9 -2.2,-2.9 -2.2,-8.6 v -13.6 q 0,-4.7 2.7,-7.2 2.7,-2.4 7.5,-2.4 9.8,0 9.8,9.6 v 2.4 q 0,3.7 -0.1,6.1 h -11.8 v 6.5 q 0,1.8 0.4,2.8 0.3,1 1.5,1 1,0 1.3,-0.6 0.5,-0.5 0.5,-1.2 0.1,-0.8 0.1,-2.1 v -3.3 h 8.1 v 1.9 q 0,6 -2.3,8.8 -2.3,2.8 -7.9,2.8 z m 2.1,-20.7 v -4.3 q 0,-3.7 -1.8,-3.7 -2.1,0 -2.1,3.7 v 4.3 z"
           id="path5627"
           inkscape:connector-curvature="0"
           style="fill:url(#linearGradient6232)" />
      </g>
      <path
         style="fill:url(#linearGradient11713);stroke:#000000;stroke-width:1.70060003;paint-order:normal"
         d="m 1457.7,1888.5 h 102.9 c 2.5,0 4.5,2 4.5,4.5 v 153.6 c 0,2.5 -2,4.5 -4.5,4.5 h -102.9 c -2.5,0 -4.5,-2 -4.5,-4.5 V 1893 c 0,-2.5 2,-4.5 4.5,-4.5 z"
         transform="rotate(4.2729)"
         id="path5631"
         inkscape:connector-curvature="0" />
      <path
         d="m -1557.2,-2047.5 h 98.3 c 1.2,0 2.1,1.1 2.1,2.4 v 149.2 c 0,1.3 -0.9,2.3 -2.1,2.3 h -98.3 c -1.2,0 -2.1,-1 -2.1,-2.3 v -149.2 c 0,-1.3 0.9,-2.4 2.1,-2.4 z"
         transform="rotate(-175.75)"
         id="path5633"
         inkscape:connector-curvature="0"
         style="fill:url(#linearGradient11715);fill-rule:evenodd" />
      <g
         aria-label="with"
         transform="rotate(4.2457)"
         id="g5643"
         style="fill:url(#linearGradient11717);stroke-width:2.98740005">
        <path
           d="m 1484.6,1938.8 -4.2,-35 h 7.2 l 2.3,18.8 2,-18.8 h 7.3 l 2.4,18.8 2,-18.8 h 7.9 l -4.5,35 h -8.4 l -2.5,-19.9 -2.2,19.9 z"
           id="path5635"
           inkscape:connector-curvature="0"
           style="fill:url(#linearGradient6234)" />
        <path
           d="m 1514.1,1901.5 v -5.9 h 8.4 v 5.9 z m 0,37.3 v -35 h 8.4 v 35 z"
           id="path5637"
           inkscape:connector-curvature="0"
           style="fill:url(#linearGradient6236)" />
        <path
           d="m 1533,1939.2 q -3.3,0 -4.6,-1.4 -1.2,-1.4 -1.2,-4.4 v -21.9 h -2.3 v -6.3 h 2.3 v -7.4 h 8.1 v 7.4 h 2.4 v 6.3 h -2.4 v 19.7 q 0,0.9 0.2,1.3 0.1,0.4 0.7,0.4 0.5,0 0.9,0 0.5,-0.1 0.6,-0.1 v 5.8 q -0.7,0.2 -2.1,0.4 -1.3,0.2 -2.6,0.2 z"
           id="path5639"
           inkscape:connector-curvature="0"
           style="fill:url(#linearGradient6238)" />
        <path
           d="m 1540.3,1897.5 h 8.6 v 9.8 q 1.4,-3.9 5.2,-3.9 3.5,0 5.3,2.3 1.8,2.2 1.8,6.2 v 26.9 h -8.3 v -26.4 q 0,-1.2 -0.6,-1.9 -0.5,-0.7 -1.5,-0.7 -0.9,0 -1.4,0.8 -0.5,0.7 -0.5,1.7 v 26.5 h -8.6 z"
           id="path5641"
           inkscape:connector-curvature="0"
           style="fill:url(#linearGradient6240)" />
      </g>
      <path
         style="fill:url(#linearGradient11719);stroke:#000000;stroke-width:1.70060003;paint-order:normal"
         d="m 715.34,2207.2 h 102.89 c 2.49,0 4.49,2 4.49,4.5 v 153.6 c 0,2.4 -2,4.4 -4.49,4.4 H 715.34 c -2.49,0 -4.49,-2 -4.49,-4.4 v -153.6 c 0,-2.5 2,-4.5 4.49,-4.5 z"
         transform="rotate(-11.846)"
         id="path5645"
         inkscape:connector-curvature="0" />
      <path
         d="m -814.68,-2365.8 h 98.31 c 1.18,0 2.13,1.1 2.13,2.4 v 149.2 c 0,1.3 -0.95,2.4 -2.13,2.4 h -98.31 c -1.18,0 -2.13,-1.1 -2.13,-2.4 v -149.2 c 0,-1.3 0.95,-2.4 2.13,-2.4 z"
         transform="rotate(168.13)"
         id="path5647"
         inkscape:connector-curvature="0"
         style="fill:url(#linearGradient11721);fill-rule:evenodd" />
      <g
         aria-label="play"
         transform="rotate(-11.873)"
         id="g5657"
         style="fill:url(#linearGradient11723);stroke-width:2.98740005">
        <path
           d="m 711.81,2220.6 h 8.51 v 1.8 q 1.82,-2.2 5.02,-2.2 4.06,0 5.64,2.7 1.63,2.7 1.63,7.6 v 12.9 q 0,4.1 -0.48,6.7 -0.48,2.6 -2.1,4.3 -1.63,1.5 -4.93,1.5 -3.15,0 -4.78,-1.7 v 8.3 h -8.51 z m 10.52,28.8 q 1.15,0 1.48,-1 0.34,-1.1 0.34,-3.1 v -14.8 q 0,-1.9 -0.34,-2.8 -0.33,-1 -1.53,-1 -1.96,0 -1.96,3.7 v 15.3 q 0,1.8 0.39,2.8 0.43,0.9 1.62,0.9 z"
           id="path5649"
           inkscape:connector-curvature="0"
           style="fill:url(#linearGradient6242)" />
        <path
           d="m 735.71,2255.5 v -41.2 h 8.51 v 41.2 z"
           id="path5651"
           inkscape:connector-curvature="0"
           style="fill:url(#linearGradient6244)" />
        <path
           d="m 753.93,2255.9 q -4.07,0 -5.59,-2.6 -1.49,-2.8 -1.49,-7.8 0,-4.1 1.06,-6.3 1.09,-2.2 3.01,-3.2 1.91,-1.1 5.83,-2.3 l 2.29,-0.8 v -3.5 q 0,-1.4 -0.57,-2.1 -0.53,-0.8 -1.29,-0.8 -0.67,0 -1.2,0.6 -0.47,0.6 -0.47,1.7 v 2.1 h -8.13 v -1.2 q 0,-5.1 2.39,-7.3 2.44,-2.2 7.89,-2.2 4.35,0 7.07,2.3 2.72,2.2 2.72,6.4 v 26.6 h -8.31 v -4.1 q -0.62,2.1 -2.01,3.3 -1.34,1.2 -3.2,1.2 z m 3.3,-6.5 q 0.95,0 1.33,-0.7 0.43,-0.8 0.43,-2 v -9.7 q -1.86,0.7 -2.77,1.8 -0.86,1.1 -0.86,3 v 4.5 q 0,3.1 1.87,3.1 z"
           id="path5653"
           inkscape:connector-curvature="0"
           style="fill:url(#linearGradient6246)" />
        <path
           d="m 769.96,2256.1 h 4.02 q 0.86,0 0.86,-0.7 0,-0.4 -0.05,-0.6 l -5.45,-34.2 h 7.98 l 1.58,17 0.76,8.7 0.91,-8.7 1.87,-17 h 8.03 l -6.5,36.8 q -0.34,2 -1.39,3 -1,1 -3.2,1 h -9.42 z"
           id="path5655"
           inkscape:connector-curvature="0"
           style="fill:url(#linearGradient6248)" />
      </g>
      <path
         style="fill:#ffffff;stroke:#000000;stroke-width:1.70060003;paint-order:normal"
         d="m 1183.4,2023 h 102.9 c 2.5,0 4.5,2 4.5,4.5 v 153.6 c 0,2.5 -2,4.5 -4.5,4.5 h -102.9 c -2.5,0 -4.5,-2 -4.5,-4.5 v -153.6 c 0,-2.5 2,-4.5 4.5,-4.5 z"
         transform="rotate(-1.408)"
         id="path5659"
         inkscape:connector-curvature="0" />
      <path
         d="m -1282.9,-2181.9 h 98.3 c 1.2,0 2.2,1.1 2.2,2.4 v 149.2 c 0,1.3 -1,2.4 -2.2,2.4 h -98.3 c -1.1,0 -2.1,-1.1 -2.1,-2.4 v -149.2 c 0,-1.3 1,-2.4 2.1,-2.4 z"
         transform="rotate(178.56)"
         id="path5661"
         inkscape:connector-curvature="0"
         style="fill:url(#linearGradient11725);fill-rule:evenodd" />
      <g
         aria-label="cards"
         transform="rotate(-1.4352)"
         id="g5673"
         style="fill:#ffffff;stroke-width:2.98740005">
        <path
           d="m 1190.5,2072 q -5.7,0 -8.3,-2.9 -2.5,-2.9 -2.5,-8.9 v -10.8 q 0,-4.6 1,-7.4 1,-2.9 3.3,-4.3 2.3,-1.4 6.4,-1.4 4.5,0 7.3,2.3 2.8,2.4 2.8,6.6 v 5.3 h -8.5 v -4.9 q 0,-1.4 -0.3,-2.1 -0.4,-0.8 -1.5,-0.8 -2.1,0 -2.1,2.9 v 17 q 0,1.2 0.5,2.1 0.5,0.8 1.5,0.8 1,0 1.5,-0.8 0.5,-0.8 0.5,-2.1 l -0.1,-5.9 h 8.5 v 6.1 q 0,4.3 -2.8,6.8 -2.7,2.4 -7.2,2.4 z"
           id="path5663"
           inkscape:connector-curvature="0" />
        <path
           d="m 1209.8,2072 q -4.1,0 -5.6,-2.6 -1.5,-2.8 -1.5,-7.8 0,-4.1 1.1,-6.3 1.1,-2.2 3,-3.2 1.9,-1.1 5.8,-2.3 l 2.3,-0.8 v -3.5 q 0,-1.4 -0.6,-2.1 -0.5,-0.8 -1.3,-0.8 -0.6,0 -1.2,0.6 -0.4,0.6 -0.4,1.7 v 2.1 h -8.2 v -1.2 q 0,-5.1 2.4,-7.3 2.5,-2.2 7.9,-2.2 4.4,0 7.1,2.3 2.7,2.2 2.7,6.4 v 26.6 h -8.3 v -4.1 q -0.6,2.1 -2,3.3 -1.4,1.2 -3.2,1.2 z m 3.3,-6.5 q 0.9,0 1.3,-0.7 0.5,-0.8 0.5,-2 v -9.7 q -1.9,0.7 -2.8,1.8 -0.9,1.1 -0.9,3 v 4.5 q 0,3.1 1.9,3.1 z"
           id="path5665"
           inkscape:connector-curvature="0" />
        <path
           d="m 1226.5,2036.7 h 8.4 v 3.8 q 0.6,-2 2.1,-3.1 1.6,-1.2 3.9,-1.2 v 7 q -1.8,0 -3.9,0.5 -2.1,0.5 -2.1,1.2 v 26.7 h -8.4 z"
           id="path5667"
           inkscape:connector-curvature="0" />
        <path
           d="m 1249.8,2072 q -3.1,0 -4.6,-1.4 -1.6,-1.5 -2.1,-3.9 -0.5,-2.4 -0.5,-6.2 l 0.1,-15.8 q 0,-3.7 1.9,-6 1.9,-2.4 5.3,-2.4 3.4,0 5.1,2.2 v -8.2 h 8.4 v 41.3 h -8.4 v -3.7 q -0.7,2.1 -1.9,3.1 -1.2,1 -3.3,1 z m 3.2,-6.5 q 1.2,0 1.6,-1.2 0.4,-1.3 0.4,-3.3 v -14.6 q 0,-1.6 -0.4,-2.6 -0.4,-1.1 -1.5,-1.1 -1.3,0 -1.7,1 -0.4,1 -0.4,2.7 v 14.7 q 0,4.4 2,4.4 z"
           id="path5669"
           inkscape:connector-curvature="0" />
        <path
           d="m 1276.3,2072 q -10.3,0 -10.3,-10.5 v -2.8 h 8.4 v 4.2 q 0,1.2 0.5,1.9 0.5,0.6 1.6,0.6 1.6,0 1.6,-2.7 0,-2 -0.8,-3.2 -0.7,-1.1 -2.5,-2.4 l -4.4,-3.5 q -2.3,-1.7 -3.3,-3.6 -1,-1.9 -1,-5.4 0,-2.6 1.4,-4.5 1.4,-1.9 3.8,-2.9 2.3,-0.9 5.2,-0.9 10.2,0 10.2,10.1 v 0.7 h -8.7 v -1.4 q 0,-1.2 -0.4,-2.1 -0.4,-0.9 -1.4,-0.9 -0.8,0 -1.3,0.6 -0.4,0.4 -0.4,1.3 0,1.9 1.4,3 l 5.2,3.7 q 2.8,2.1 4.3,4.5 1.4,2.4 1.4,6.1 0,4.9 -2.7,7.5 -2.8,2.6 -7.8,2.6 z"
           id="path5671"
           inkscape:connector-curvature="0" />
      </g>
    </g>
  </g>
</svg>
